<?xml version="1.0" encoding="utf-8"?>
<!-- Generator: Adobe Illustrator 22.0.1, SVG Export Plug-In . SVG Version: 6.00 Build 0)  -->
<svg version="1.1" id="Layer_1" xmlns="http://www.w3.org/2000/svg" xmlns:xlink="http://www.w3.org/1999/xlink" x="0px" y="0px"
	 viewBox="0 0 144 79.6" style="enable-background:new 0 0 144 79.6;" xml:space="preserve">
<style type="text/css">
	.st0{fill:#FFFFFF;}
</style>
<title>Artboard 1 copy 6</title>
<g>
	<path class="st0" d="M17.4,49.3L17.4,49.3l8.2-20.2h3.8v24.4H27V32.3h-0.1l-8.8,21.2h-1.3L7.9,32.3H7.8v21.2H5.4V29.1h3.8
		L17.4,49.3z"/>
	<path class="st0" d="M51.8,45.5c0,1.2-0.2,2.3-0.6,3.4c-0.4,1-1,1.9-1.8,2.7c-0.8,0.8-1.7,1.4-2.7,1.8c-1.1,0.4-2.2,0.6-3.5,0.6
		c-1.2,0-2.4-0.2-3.5-0.6c-1.1-0.4-2-1-2.7-1.8c-0.8-0.8-1.4-1.7-1.8-2.7c-0.4-1-0.6-2.2-0.6-3.4c0-1.2,0.2-2.3,0.6-3.4
		s1-1.9,1.8-2.7c0.8-0.8,1.7-1.4,2.7-1.8c1.1-0.4,2.2-0.6,3.5-0.6c1.3,0,2.4,0.2,3.5,0.6c1.1,0.4,2,1,2.7,1.8
		c0.8,0.8,1.4,1.7,1.8,2.7C51.6,43.1,51.8,44.2,51.8,45.5z M49.4,45.5c0-0.9-0.1-1.7-0.4-2.5c-0.3-0.8-0.7-1.5-1.2-2.1
		c-0.5-0.6-1.2-1.1-1.9-1.4c-0.8-0.3-1.6-0.5-2.6-0.5c-0.9,0-1.8,0.2-2.5,0.5c-0.7,0.3-1.4,0.8-1.9,1.4c-0.5,0.6-0.9,1.3-1.2,2.1
		c-0.3,0.8-0.4,1.6-0.4,2.5c0,0.9,0.1,1.7,0.4,2.5c0.3,0.8,0.7,1.5,1.2,2.1c0.5,0.6,1.2,1,1.9,1.4c0.7,0.3,1.6,0.5,2.5,0.5
		c0.9,0,1.8-0.2,2.6-0.5c0.8-0.3,1.4-0.8,1.9-1.4s0.9-1.3,1.2-2.1C49.2,47.2,49.4,46.4,49.4,45.5z"/>
	<path class="st0" d="M59.7,31.2c0,0.5-0.2,0.9-0.5,1.2c-0.3,0.3-0.7,0.5-1.1,0.5s-0.8-0.2-1.1-0.5c-0.3-0.3-0.5-0.7-0.5-1.2
		c0-0.5,0.2-0.9,0.5-1.2s0.7-0.5,1.1-0.5s0.8,0.2,1.1,0.5C59.6,30.3,59.7,30.7,59.7,31.2z M59.3,53.5h-2.3V37.4h2.3V53.5z"/>
	<path class="st0" d="M65.5,39.2c0-0.7-0.1-1.3-0.1-1.9h2.2c0,0.4,0.1,0.9,0.1,1.4c0,0.5,0,1,0,1.3h0.1c0.5-0.9,1.1-1.7,2.1-2.3
		c0.9-0.6,2-0.9,3.1-0.9c0.3,0,0.6,0,0.8,0c0.2,0,0.5,0.1,0.7,0.1l-0.3,2.2c-0.1,0-0.4-0.1-0.7-0.1c-0.3,0-0.6-0.1-1-0.1
		c-0.6,0-1.2,0.1-1.8,0.3c-0.6,0.2-1.1,0.6-1.5,1.1c-0.4,0.5-0.8,1.1-1,1.9c-0.3,0.8-0.4,1.7-0.4,2.8v8.3h-2.3V40.9
		C65.5,40.5,65.5,39.9,65.5,39.2z"/>
	<path class="st0" d="M87.7,43.1c0-1.4-0.4-2.4-1.1-3.1s-1.8-1-3.2-1c-1,0-1.9,0.2-2.7,0.5s-1.5,0.8-2.1,1.4l-1.3-1.6
		c0.7-0.7,1.5-1.2,2.6-1.7c1.1-0.4,2.3-0.7,3.7-0.7c0.9,0,1.7,0.1,2.5,0.4c0.8,0.2,1.4,0.6,2,1.1c0.6,0.5,1,1.1,1.3,1.8
		c0.3,0.7,0.5,1.6,0.5,2.6v7.1c0,0.6,0,1.3,0.1,1.9s0.1,1.2,0.2,1.7h-2.1c-0.1-0.4-0.1-0.8-0.2-1.3c0-0.5-0.1-0.9-0.1-1.3h-0.1
		c-0.7,1.1-1.6,1.9-2.5,2.3c-0.9,0.5-2.1,0.7-3.4,0.7c-0.6,0-1.3-0.1-1.9-0.3s-1.3-0.5-1.8-0.8c-0.5-0.4-1-0.9-1.3-1.5
		s-0.5-1.4-0.5-2.3c0-1.2,0.3-2.2,0.9-3c0.6-0.7,1.5-1.3,2.5-1.6c1.1-0.4,2.3-0.6,3.6-0.7c1.4-0.1,2.8-0.2,4.3-0.2V43.1z M87,45.5
		c-1,0-1.9,0-2.9,0.1c-1,0.1-1.9,0.2-2.7,0.5c-0.8,0.2-1.4,0.6-1.9,1.1c-0.5,0.5-0.8,1.1-0.8,1.8c0,0.6,0.1,1.1,0.3,1.5
		c0.2,0.4,0.5,0.7,0.9,0.9c0.4,0.2,0.8,0.4,1.2,0.5c0.4,0.1,0.9,0.2,1.4,0.2c0.8,0,1.6-0.1,2.2-0.4c0.6-0.3,1.2-0.7,1.6-1.2
		c0.4-0.5,0.8-1.1,1-1.7c0.2-0.6,0.3-1.3,0.3-2v-1.2H87z"/>
	<path class="st0" d="M99.2,51.9c0,0.5-0.2,0.9-0.5,1.3s-0.8,0.6-1.3,0.6c-0.6,0-1-0.2-1.3-0.6c-0.3-0.4-0.5-0.8-0.5-1.3
		s0.2-0.9,0.5-1.3c0.3-0.4,0.8-0.6,1.3-0.6c0.6,0,1,0.2,1.3,0.6S99.2,51.4,99.2,51.9z"/>
	<path class="st0" d="M124.7,49.3L124.7,49.3l8.2-20.2h3.8v24.4h-2.5V32.3h-0.1l-8.8,21.2H124l-8.8-21.2h-0.1v21.2h-2.5V29.1h3.8
		L124.7,49.3z"/>
</g>
</svg>
