<svg id="Layer_1" data-name="Layer 1" xmlns="http://www.w3.org/2000/svg" width="144" height="79.6" viewBox="0 0 144 79.6"><title>Artboard 1 copy 6</title><path d="M41.5,49.2a2.7,2.7,0,0,0,.2,1.3,1.6,1.6,0,0,0,.8.6h.9c.3,0,.5.2.8.5a1.4,1.4,0,0,1,.3.9,1.7,1.7,0,0,1-.3,1,1,1,0,0,1-.8.4A3.8,3.8,0,0,1,40,52a4.6,4.6,0,0,1-.6-2.3,11.5,11.5,0,0,1,.3-2.6l4-14a2.5,2.5,0,0,0-.4-1.9,2.1,2.1,0,0,0-1.8-.8,3,3,0,0,0-1.8,1,7.3,7.3,0,0,0-1.2,2.5h-.1L33,53.1a1.1,1.1,0,0,1-1.1.9h-.4a1.4,1.4,0,0,1-.6-.7,2.1,2.1,0,0,1,0-1.1l5.3-18.8h0c0-.2.1-.5.1-.8a1.6,1.6,0,0,0-.2-1,1.6,1.6,0,0,0-.7-.9,2.5,2.5,0,0,0-1.2-.2,3.2,3.2,0,0,0-1.9,1A7.9,7.9,0,0,0,31.1,34a4.1,4.1,0,0,1-.2.7c-.1.4-.3.9-.5,1.7l-.9,3.3c-.4,1.4-.9,3.2-1.6,5.4s-1.3,4.8-2.3,8a1,1,0,0,1-1,.9h-.4a2.2,2.2,0,0,1-.6-.7,1.4,1.4,0,0,1,0-1.1l7.2-25.2a2,2,0,0,0,.1-.7.7.7,0,0,0-.7-.5A24.9,24.9,0,0,0,22.8,28a19.4,19.4,0,0,0-4.6,3.2,3.2,3.2,0,0,0-.8,2.1,8.5,8.5,0,0,0,.4,2.4,9.9,9.9,0,0,0,1.3,2.8l1.5,2c.5.6.7.8.7.9a1.9,1.9,0,0,1,.1,1.9,1,1,0,0,1-.9.4.9.9,0,0,1-.7-.3l-.8-.9-1.6-2.2A13.6,13.6,0,0,1,15,33.4a5.4,5.4,0,0,1,1.6-4.1,20.7,20.7,0,0,1,7.7-4.6l3.8-1.3a20.7,20.7,0,0,1,4.6-1,.8.8,0,0,1,1,.5,1.5,1.5,0,0,1,.2,1.3l-1,3.7,1.1-.2a3.5,3.5,0,0,1,2.3.4,3.8,3.8,0,0,1,1.6,1.7l.3-.4c.1,0,.1-.1.2-.3a4.7,4.7,0,0,1,3-1.4,3.9,3.9,0,0,1,2.4.5,4,4,0,0,1,1.6,2,4.5,4.5,0,0,1,.5,1.9,5,5,0,0,1-.3,2.3q-.3,1.2-.6,2.1l-.6,2.2-.7,2.5L41.8,48A5.3,5.3,0,0,0,41.5,49.2Z" fill="#fff"/><path d="M62.7,34.9a1.9,1.9,0,0,1,.5.9,1.2,1.2,0,0,1-.2,1l-.9.8c-.3.2-.5.5-.9.6a3.1,3.1,0,0,1-1,.5,3.2,3.2,0,0,1-1.4.3l-.3,1.8a18,18,0,0,1-.5,1.9h0c0,.1,0,.1-.1.2a17.6,17.6,0,0,1-.7,2.2A11.5,11.5,0,0,1,56,47.7a6.6,6.6,0,0,1-5.6,3h-.9a4.7,4.7,0,0,1-3.8-2.5c-1-1.8-1-4.6-.1-8.3a14.5,14.5,0,0,1,3.1-6.6,5.8,5.8,0,0,1,4.5-1.9H54l.9.2a3.8,3.8,0,0,1,1.7.7,4.6,4.6,0,0,1,1.5,2,5.2,5.2,0,0,1,.6,2l.8-.2.5-.2.5-.2.6-.4.8-.5C62.1,34.6,62.4,34.7,62.7,34.9Zm-6.8,6.8a8.3,8.3,0,0,0,.4-1.5,6.8,6.8,0,0,0,.2-1.4h-.3a2.7,2.7,0,0,1-1.4-1.4,4.3,4.3,0,0,1-.1-3h-.1l-1.4-.2-1.4.2a2.4,2.4,0,0,0-1.4.9,6.2,6.2,0,0,0-1.2,1.9A14.6,14.6,0,0,0,48,40.5a20.6,20.6,0,0,0-.7,3.8,4.4,4.4,0,0,0,.2,2.4,2,2,0,0,0,.9.9,2.4,2.4,0,0,0,1.4.5h.7a4.8,4.8,0,0,0,2.2-.5,6.7,6.7,0,0,0,1.5-1.4,7.2,7.2,0,0,0,.9-2,18.7,18.7,0,0,0,.7-2.2.8.8,0,0,0,.1-.3Z" fill="#fff"/><path d="M65.6,44.8a1.6,1.6,0,0,1,.7.7,2,2,0,0,1,0,1.1,10.4,10.4,0,0,0-.4,1l-.7,1.1a3.8,3.8,0,0,1-3,2,2.4,2.4,0,0,1-1.8-.6,2.8,2.8,0,0,1-.9-1c-.8-1.2-.8-3.1,0-5.6l3.2-11a1,1,0,0,1,.6-.8.8.8,0,0,1,.8-.1,1.3,1.3,0,0,1,.7,1.3.7.7,0,0,1-.1.5l-3.1,11a8,8,0,0,0-.5,2c0,.5,0,.9.2,1.1a1,1,0,0,0,.4.5h.4a1.3,1.3,0,0,0,.8-.3l.6-.8a5.6,5.6,0,0,0,.5-.8c.1-.3.2-.4.2-.5a1,1,0,0,1,.6-.8A.6.6,0,0,1,65.6,44.8Zm-.7-15.4a1.4,1.4,0,0,1-1.1-.6,2.1,2.1,0,0,1-.5-1.3,2.4,2.4,0,0,1,.5-1.4,1.5,1.5,0,0,1,2.2,0,2.3,2.3,0,0,1,.4,1.4,2,2,0,0,1-.4,1.3A1.4,1.4,0,0,1,64.9,29.4Z" fill="#fff"/><path d="M76.7,45a1.1,1.1,0,0,1,.6.7,2.1,2.1,0,0,1,0,1.1,4.6,4.6,0,0,0-.3.9l-.7,1.2a3.8,3.8,0,0,1-3,1.8,3,3,0,0,1-1.8-.5,2.8,2.8,0,0,1-.9-1,5.2,5.2,0,0,1-.7-2.3,11.2,11.2,0,0,1,.5-3.4,30.7,30.7,0,0,0,.8-3.5,4.6,4.6,0,0,0,0-1.7.7.7,0,0,0-.3-.6l-.8-.4h-.8c-.1.1-.2.1-.2.2s-.2.2-.2.3l-2.6,9.2a1.6,1.6,0,0,1-.4.7l-.7.2h-.3a1.3,1.3,0,0,1-.8-1.3.8.8,0,0,1,.1-.4L67.9,33a1.1,1.1,0,0,1,.7-.9c.3-.1.4-.1.5,0l.4.2.3.4a1.9,1.9,0,0,1,.2.8v.8l.3.2.5.3a3.8,3.8,0,0,1,1.3.8,3.2,3.2,0,0,1,1.1,1.7,8.4,8.4,0,0,1,.2,2.9,20.7,20.7,0,0,1-.9,4.3l-.3,1.3a4.5,4.5,0,0,0-.1,1.1,1.2,1.2,0,0,0,.3.9.9.9,0,0,0,.8.4A.7.7,0,0,0,74,48l.7-.8.4-.9c.1-.3.1-.5.2-.6a1.1,1.1,0,0,1,.6-.7A.6.6,0,0,1,76.7,45Z" fill="#fff"/><path d="M91.6,44.8a1.1,1.1,0,0,1,.6.7,2.1,2.1,0,0,1,0,1.1h0l-.4,1a4.6,4.6,0,0,1-.7,1.4,3.3,3.3,0,0,1-2.6,1.6h-.4a2.6,2.6,0,0,1-1.3-.6,2,2,0,0,1-.8-.8c-.1-.2-.1-.3-.2-.3h-.6a8,8,0,0,1-1.9,1.3,4.3,4.3,0,0,1-2.3.5h-.9a4.8,4.8,0,0,1-3.8-2.4c-1-1.9-1-4.7-.1-8.4a14.6,14.6,0,0,1,3.1-6.5,5.9,5.9,0,0,1,4.5-2l1.7.2a5.3,5.3,0,0,1,1.5.5,3.5,3.5,0,0,1,1.3,1.6l.4.3c.1,0,.2-.1.2-.3s.1-.3.1-.6a1.6,1.6,0,0,1,.6-.8,1.4,1.4,0,0,1,.9,0,1.4,1.4,0,0,1,.7,1.3v.2c0,.1-.1.2-.1.3l-3,10.2a13.1,13.1,0,0,0-.3,1.5,3.8,3.8,0,0,0-.1,1v.5c0,.2.1.2.1.3h.1l.5.2a1.2,1.2,0,0,0,.9-.6,5.4,5.4,0,0,0,.8-1.7v-.2a1.1,1.1,0,0,1,.6-.7A.8.8,0,0,1,91.6,44.8ZM81,48.1a6,6,0,0,0,2-.3,3.9,3.9,0,0,0,1.4-.8,3,3,0,0,0,.9-1.3A8.7,8.7,0,0,0,86,44l.6-2.5c.7-2.5.8-4.4.2-5.7a2.5,2.5,0,0,0-1-1.2l-.6-.2H82.4a3.5,3.5,0,0,0-1.4.6,8,8,0,0,0-1.3,1.6,19.4,19.4,0,0,0-1.1,3.4c-.2.7-.3,1.4-.5,2.1a15,15,0,0,0-.2,2,4.8,4.8,0,0,0,0,1.7,3.6,3.6,0,0,0,.2,1.1A2.6,2.6,0,0,0,80.3,48H81Z" fill="#fff"/><path d="M126.2,44.8a1,1,0,0,1,.6.8,1.2,1.2,0,0,1-.1,1,4.9,4.9,0,0,1-.6,1.3c-.2.5-.5.8-.6,1.1a3.9,3.9,0,0,1-3,1.7,2.9,2.9,0,0,1-2.8-1.5c-.7-1.2-.6-2.9.1-5.1s.7-2.8,1-3.8l.5-2a3.5,3.5,0,0,0,.3-1.2,2.8,2.8,0,0,0,.1-.9l-.3-.8a1.8,1.8,0,0,0-.8-.9,1.9,1.9,0,0,0-1.3-.3,2.9,2.9,0,0,0-1.9,1.1,6.8,6.8,0,0,0-1.3,2.7c-.1.1-.1.3-.2.6a5.3,5.3,0,0,0-.3,1.1,13.6,13.6,0,0,1-.6,2q-.3,1.3-.9,3.3c-.4,1.3-.8,2.9-1.4,4.8a.7.7,0,0,1-.4.6.9.9,0,0,1-.6.3h-.4a.9.9,0,0,1-.6-.7.9.9,0,0,1,0-1l1.5-5.6.6-2.1c.2-.6.3-1.2.5-1.7a12.1,12.1,0,0,1,.5-1.8c0-.2.1-.6.1-1.1a1.6,1.6,0,0,0-.2-1.2,2.4,2.4,0,0,0-.8-.9,1.8,1.8,0,0,0-1.2-.3,2.9,2.9,0,0,0-2,1.1,6.6,6.6,0,0,0-1.3,2.8.4.4,0,0,0-.1.3,9.3,9.3,0,0,0-.4,1.4c-.2.8-.6,2-1,3.5s-1,3.7-1.8,6.5a1.1,1.1,0,0,1-1.1.9h-.4l-.5-.5a1.9,1.9,0,0,1-.2-.8.8.8,0,0,1,.1-.4l4.4-15.7a1,1,0,0,1,.6-.8.8.8,0,0,1,.8-.1.1.1,0,0,1,.1.1h.2a4.1,4.1,0,0,1,1.1-.7,2.8,2.8,0,0,1,1.3-.3,3.2,3.2,0,0,1,2.1.4,3.6,3.6,0,0,1,1.6,1.4c.2.2.4.2.5.1s.3-.3.4-.4a5.3,5.3,0,0,1,3.1-1.5,3.6,3.6,0,0,1,2.5.6,4.4,4.4,0,0,1,1.7,2.1,5.9,5.9,0,0,1,.5,1.9,5.3,5.3,0,0,1-.3,2.4c-.4,1.5-.7,2.7-1,3.5s-.4,1.5-.5,2a8.4,8.4,0,0,0-.2,1h-.1a6.1,6.1,0,0,0-.3,1.6,3.3,3.3,0,0,0,0,1c.1.2.3.4.4.4l.4.2a1,1,0,0,0,.8-.4,4.6,4.6,0,0,0,.7-.7,4.7,4.7,0,0,0,.6-.9,1.7,1.7,0,0,0,.3-.7.9.9,0,0,1,.6-.7A.8.8,0,0,1,126.2,44.8Z" fill="#fff"/></svg>